# Blender 4.2.8 LTS
# www.blender.org
o Target
v -0.100580 -1.733169 0.881330
v -0.100581 1.599787 -0.161325
v 0.099419 1.599787 -0.161325
v 0.099420 -1.733169 0.881330
v 0.099420 -1.733169 0.881330
v 0.099419 1.599787 -0.161325
v 0.099419 1.659499 0.029553
v 0.099420 -1.673456 1.072208
v 0.099420 -1.673456 1.072208
v 0.099419 1.659499 0.029553
v -0.100581 1.659499 0.029553
v -0.100580 -1.673456 1.072208
v -0.100580 -1.673456 1.072208
v -0.100581 1.659499 0.029553
v -0.100581 1.599787 -0.161325
v -0.100580 -1.733169 0.881330
v 0.099420 -1.733169 0.881330
v 0.099420 -1.673456 1.072208
v -0.100580 -1.673456 1.072208
v -0.100580 -1.733169 0.881330
v 0.099419 1.659499 0.029553
v 0.099419 1.599787 -0.161325
v -0.100581 1.599787 -0.161325
v -0.100581 1.659499 0.029553
v 1.573799 -1.703585 -0.593543
v -0.027732 1.674629 0.025669
v -0.027732 1.710688 -0.171054
v 1.573800 -1.667527 -0.790266
v 1.573800 -1.667527 -0.790266
v -0.027732 1.710688 -0.171054
v 0.153529 1.793826 -0.155815
v 1.755061 -1.584388 -0.775027
v 1.755061 -1.584388 -0.775027
v 0.153529 1.793826 -0.155815
v 0.153529 1.757768 0.040908
v 1.755061 -1.620447 -0.578305
v 1.755061 -1.620447 -0.578305
v 0.153529 1.757768 0.040908
v -0.027732 1.674629 0.025669
v 1.573799 -1.703585 -0.593543
v 1.573800 -1.667527 -0.790266
v 1.755061 -1.584388 -0.775027
v 1.755061 -1.620447 -0.578305
v 1.573799 -1.703585 -0.593543
v 0.153529 1.793826 -0.155815
v -0.027732 1.710688 -0.171054
v -0.027732 1.674629 0.025669
v 0.153529 1.757768 0.040908
v -1.752050 -1.620446 -0.578305
v -0.150518 1.757768 0.040908
v -0.150518 1.793826 -0.155815
v -1.752050 -1.584388 -0.775027
v -1.752050 -1.584388 -0.775027
v -0.150518 1.793826 -0.155815
v 0.030743 1.710688 -0.171054
v -1.570788 -1.667527 -0.790266
v -1.570788 -1.667527 -0.790266
v 0.030743 1.710688 -0.171054
v 0.030743 1.674629 0.025669
v -1.570788 -1.703585 -0.593543
v -1.570788 -1.703585 -0.593543
v 0.030743 1.674629 0.025669
v -0.150518 1.757768 0.040908
v -1.752050 -1.620446 -0.578305
v -1.752050 -1.584388 -0.775027
v -1.570788 -1.667527 -0.790266
v -1.570788 -1.703585 -0.593543
v -1.752050 -1.620446 -0.578305
v 0.030743 1.710688 -0.171054
v -0.150518 1.793826 -0.155815
v -0.150518 1.757768 0.040908
v 0.030743 1.674629 0.025669
v 0.000292 -0.214605 -0.522347
v 0.000292 -0.144277 -0.916116
v 0.058342 -0.142917 -0.915873
v 0.058342 -0.213245 -0.522104
v 0.058342 -0.213245 -0.522104
v 0.058342 -0.142917 -0.915873
v 0.116261 -0.138839 -0.915145
v 0.116261 -0.209167 -0.521376
v 0.116261 -0.209167 -0.521376
v 0.116261 -0.138839 -0.915145
v 0.173917 -0.132053 -0.913933
v 0.173917 -0.202381 -0.520164
v 0.173917 -0.202381 -0.520164
v 0.173917 -0.132053 -0.913933
v 0.231179 -0.122574 -0.912240
v 0.231179 -0.192902 -0.518471
v 0.231179 -0.192902 -0.518471
v 0.231179 -0.122574 -0.912240
v 0.287918 -0.110423 -0.910070
v 0.287918 -0.180751 -0.516301
v 0.287918 -0.180751 -0.516301
v 0.287918 -0.110423 -0.910070
v 0.344006 -0.095628 -0.907427
v 0.344006 -0.165957 -0.513659
v 0.344006 -0.165957 -0.513659
v 0.344006 -0.095628 -0.907427
v 0.399315 -0.078223 -0.904319
v 0.399315 -0.148552 -0.510550
v 0.399315 -0.148552 -0.510550
v 0.399315 -0.078223 -0.904319
v 0.453721 -0.058247 -0.900751
v 0.453721 -0.128576 -0.506982
v 0.453721 -0.128576 -0.506982
v 0.453721 -0.058247 -0.900751
v 0.507099 -0.035746 -0.896732
v 0.507099 -0.106074 -0.502963
v 0.507099 -0.106074 -0.502963
v 0.507099 -0.035746 -0.896732
v 0.559329 -0.010769 -0.892271
v 0.559329 -0.081097 -0.498502
v 0.559329 -0.081097 -0.498502
v 0.559329 -0.010769 -0.892271
v 0.610292 0.016626 -0.887378
v 0.610292 -0.053703 -0.493610
v 0.610292 -0.053703 -0.493610
v 0.610292 0.016626 -0.887378
v 0.659874 0.046377 -0.882065
v 0.659874 -0.023952 -0.488296
v 0.659874 -0.023952 -0.488296
v 0.659874 0.046377 -0.882065
v 0.707962 0.078416 -0.876342
v 0.707962 0.008088 -0.482573
v 0.707962 0.008088 -0.482573
v 0.707962 0.078416 -0.876342
v 0.754446 0.112672 -0.870224
v 0.754446 0.042344 -0.476455
v 0.754446 0.042344 -0.476455
v 0.754446 0.112672 -0.870224
v 0.799223 0.149067 -0.863724
v 0.799223 0.078738 -0.469955
v 0.799223 0.078738 -0.469955
v 0.799223 0.149067 -0.863724
v 0.842189 0.187517 -0.856857
v 0.842189 0.117189 -0.463088
v 0.842189 0.117189 -0.463088
v 0.842189 0.187517 -0.856857
v 0.883248 0.227937 -0.849638
v 0.883248 0.157608 -0.455869
v 0.883248 0.157608 -0.455869
v 0.883248 0.227937 -0.849638
v 0.922307 0.270234 -0.842083
v 0.922307 0.199905 -0.448314
v 0.922307 0.199905 -0.448314
v 0.922307 0.270234 -0.842083
v 0.959277 0.314312 -0.834211
v 0.959277 0.243984 -0.440442
v 0.959277 0.243984 -0.440442
v 0.959277 0.314312 -0.834211
v 0.994075 0.360073 -0.826038
v 0.994075 0.289744 -0.432269
v 0.994075 0.289744 -0.432269
v 0.994075 0.360073 -0.826038
v 1.026622 0.407411 -0.817583
v 1.026622 0.337083 -0.423814
v 1.026622 0.337083 -0.423814
v 1.026622 0.407411 -0.817583
v 1.056844 0.456221 -0.808865
v 1.056844 0.385892 -0.415096
v 1.056844 0.385892 -0.415096
v 1.056844 0.456221 -0.808865
v 1.084672 0.506391 -0.799905
v 1.084672 0.436062 -0.406136
v 1.084672 0.436062 -0.406136
v 1.084672 0.506391 -0.799905
v 1.110044 0.557807 -0.790722
v 1.110044 0.487478 -0.396953
v 1.110044 0.487478 -0.396953
v 1.110044 0.557807 -0.790722
v 1.132901 0.610353 -0.781337
v 1.132902 0.540025 -0.387568
v 1.132902 0.540025 -0.387568
v 1.132901 0.610353 -0.781337
v 1.153193 0.663911 -0.771771
v 1.153193 0.593583 -0.378002
v 1.153193 0.593583 -0.378002
v 1.153193 0.663911 -0.771771
v 1.170874 0.718359 -0.762046
v 1.170874 0.648031 -0.368278
v 1.170874 0.648031 -0.368278
v 1.170874 0.718359 -0.762046
v 1.185903 0.773573 -0.752185
v 1.185903 0.703245 -0.358416
v 1.185903 0.703245 -0.358416
v 1.185903 0.773573 -0.752185
v 1.198245 0.829429 -0.742209
v 1.198246 0.759100 -0.348440
v 1.198246 0.759100 -0.348440
v 1.198245 0.829429 -0.742209
v 1.207875 0.885799 -0.732141
v 1.207875 0.815471 -0.338372
v 1.207875 0.815471 -0.338372
v 1.207875 0.885799 -0.732141
v 1.214768 0.942557 -0.722004
v 1.214768 0.872228 -0.328235
v 1.214768 0.872228 -0.328235
v 1.214768 0.942557 -0.722004
v 1.218911 0.999573 -0.711821
v 1.218911 0.929245 -0.318052
v 1.218911 0.929245 -0.318052
v 1.218911 0.999573 -0.711821
v 1.220293 1.056719 -0.701614
v 1.220292 0.986390 -0.307846
v 1.220292 0.986390 -0.307846
v 1.220293 1.056719 -0.701614
v 1.218911 1.113864 -0.691408
v 1.218911 1.043536 -0.297639
v 1.218911 1.043536 -0.297639
v 1.218911 1.113864 -0.691408
v 1.214768 1.170880 -0.681225
v 1.214768 1.100552 -0.287456
v 1.214768 1.100552 -0.287456
v 1.214768 1.170880 -0.681225
v 1.207875 1.227638 -0.671088
v 1.207875 1.157310 -0.277319
v 1.207875 1.157310 -0.277319
v 1.207875 1.227638 -0.671088
v 1.198245 1.284009 -0.661020
v 1.198245 1.213680 -0.267251
v 1.198245 1.213680 -0.267251
v 1.198245 1.284009 -0.661020
v 1.185902 1.339864 -0.651044
v 1.185903 1.269536 -0.257275
v 1.185903 1.269536 -0.257275
v 1.185902 1.339864 -0.651044
v 1.170874 1.395078 -0.641182
v 1.170874 1.324750 -0.247413
v 1.170874 1.324750 -0.247413
v 1.170874 1.395078 -0.641182
v 1.153193 1.449526 -0.631458
v 1.153193 1.379197 -0.237689
v 1.153193 1.379197 -0.237689
v 1.153193 1.449526 -0.631458
v 1.132901 1.503084 -0.621892
v 1.132901 1.432755 -0.228123
v 1.132901 1.432755 -0.228123
v 1.132901 1.503084 -0.621892
v 1.110043 1.555630 -0.612507
v 1.110043 1.485302 -0.218738
v 1.110043 1.485302 -0.218738
v 1.110043 1.555630 -0.612507
v 1.084671 1.607047 -0.603324
v 1.084671 1.536718 -0.209555
v 1.084671 1.536718 -0.209555
v 1.084671 1.607047 -0.603324
v 1.056843 1.657216 -0.594363
v 1.056843 1.586888 -0.200595
v 1.056843 1.586888 -0.200595
v 1.056843 1.657216 -0.594363
v 1.026621 1.706026 -0.585646
v 1.026621 1.635697 -0.191877
v 1.026621 1.635697 -0.191877
v 1.026621 1.706026 -0.585646
v 0.994075 1.753364 -0.577191
v 0.994075 1.683036 -0.183422
v 0.994075 1.683036 -0.183422
v 0.994075 1.753364 -0.577191
v 0.959277 1.799124 -0.569018
v 0.959277 1.728796 -0.175249
v 0.959277 1.728796 -0.175249
v 0.959277 1.799124 -0.569018
v 0.922307 1.843203 -0.561146
v 0.922307 1.772875 -0.167377
v 0.922307 1.772875 -0.167377
v 0.922307 1.843203 -0.561146
v 0.883248 1.885499 -0.553591
v 0.883248 1.815171 -0.159822
v 0.883248 1.815171 -0.159822
v 0.883248 1.885499 -0.553591
v 0.842189 1.925919 -0.546372
v 0.842189 1.855591 -0.152603
v 0.842189 1.855591 -0.152603
v 0.842189 1.925919 -0.546372
v 0.799223 1.964370 -0.539505
v 0.799223 1.894041 -0.145736
v 0.799223 1.894041 -0.145736
v 0.799223 1.964370 -0.539505
v 0.754447 2.000764 -0.533005
v 0.754447 1.930436 -0.139236
v 0.754447 1.930436 -0.139236
v 0.754447 2.000764 -0.533005
v 0.707962 2.035019 -0.526887
v 0.707962 1.964691 -0.133118
v 0.707962 1.964691 -0.133118
v 0.707962 2.035019 -0.526887
v 0.659875 2.067059 -0.521164
v 0.659875 1.996731 -0.127395
v 0.659875 1.996731 -0.127395
v 0.659875 2.067059 -0.521164
v 0.610293 2.096810 -0.515851
v 0.610293 2.026482 -0.122082
v 0.610293 2.026482 -0.122082
v 0.610293 2.096810 -0.515851
v 0.559329 2.124205 -0.510958
v 0.559329 2.053877 -0.117189
v 0.559329 2.053877 -0.117189
v 0.559329 2.124205 -0.510958
v 0.507100 2.149182 -0.506497
v 0.507100 2.078853 -0.112728
v 0.507100 2.078853 -0.112728
v 0.507100 2.149182 -0.506497
v 0.453722 2.171683 -0.502478
v 0.453722 2.101355 -0.108709
v 0.453722 2.101355 -0.108709
v 0.453722 2.171683 -0.502478
v 0.399316 2.191659 -0.498910
v 0.399316 2.121331 -0.105141
v 0.399316 2.121331 -0.105141
v 0.399316 2.191659 -0.498910
v 0.344007 2.209064 -0.495802
v 0.344007 2.138736 -0.102033
v 0.344007 2.138736 -0.102033
v 0.344007 2.209064 -0.495802
v 0.287920 2.223859 -0.493159
v 0.287920 2.153530 -0.099390
v 0.287920 2.153530 -0.099390
v 0.287920 2.223859 -0.493159
v 0.231180 2.236010 -0.490989
v 0.231180 2.165681 -0.097220
v 0.231180 2.165681 -0.097220
v 0.231180 2.236010 -0.490989
v 0.173918 2.245489 -0.489296
v 0.173918 2.175160 -0.095527
v 0.173918 2.175160 -0.095527
v 0.173918 2.245489 -0.489296
v 0.116262 2.252275 -0.488084
v 0.116262 2.181947 -0.094315
v 0.116262 2.181947 -0.094315
v 0.116262 2.252275 -0.488084
v 0.058344 2.256353 -0.487356
v 0.058344 2.186024 -0.093587
v 0.058344 2.186024 -0.093587
v 0.058344 2.256353 -0.487356
v 0.000294 2.257713 -0.487113
v 0.000294 2.187385 -0.093344
v 0.000294 2.187385 -0.093344
v 0.000294 2.257713 -0.487113
v -0.057755 2.256353 -0.487356
v -0.057755 2.186025 -0.093587
v -0.057755 2.186025 -0.093587
v -0.057755 2.256353 -0.487356
v -0.115674 2.252275 -0.488084
v -0.115674 2.181947 -0.094315
v -0.115674 2.181947 -0.094315
v -0.115674 2.252275 -0.488084
v -0.173329 2.245489 -0.489296
v -0.173329 2.175161 -0.095527
v -0.173329 2.175161 -0.095527
v -0.173329 2.245489 -0.489296
v -0.230592 2.236010 -0.490989
v -0.230592 2.165682 -0.097220
v -0.230592 2.165682 -0.097220
v -0.230592 2.236010 -0.490989
v -0.287331 2.223860 -0.493159
v -0.287331 2.153531 -0.099390
v -0.287331 2.153531 -0.099390
v -0.287331 2.223860 -0.493159
v -0.343419 2.209065 -0.495802
v -0.343419 2.138737 -0.102033
v -0.343419 2.138737 -0.102033
v -0.343419 2.209065 -0.495802
v -0.398728 2.191660 -0.498910
v -0.398728 2.121332 -0.105141
v -0.398728 2.121332 -0.105141
v -0.398728 2.191660 -0.498910
v -0.453133 2.171685 -0.502478
v -0.453133 2.101356 -0.108709
v -0.453133 2.101356 -0.108709
v -0.453133 2.171685 -0.502478
v -0.506511 2.149183 -0.506497
v -0.506511 2.078855 -0.112728
v -0.506511 2.078855 -0.112728
v -0.506511 2.149183 -0.506497
v -0.558741 2.124207 -0.510958
v -0.558741 2.053878 -0.117189
v -0.558741 2.053878 -0.117189
v -0.558741 2.124207 -0.510958
v -0.609705 2.096812 -0.515850
v -0.609705 2.026484 -0.122081
v -0.609705 2.026484 -0.122081
v -0.609705 2.096812 -0.515850
v -0.659287 2.067061 -0.521164
v -0.659287 1.996733 -0.127395
v -0.659287 1.996733 -0.127395
v -0.659287 2.067061 -0.521164
v -0.707374 2.035022 -0.526886
v -0.707374 1.964694 -0.133117
v -0.707374 1.964694 -0.133117
v -0.707374 2.035022 -0.526886
v -0.753859 2.000767 -0.533004
v -0.753859 1.930438 -0.139236
v -0.753859 1.930438 -0.139236
v -0.753859 2.000767 -0.533004
v -0.798635 1.964372 -0.539505
v -0.798635 1.894044 -0.145736
v -0.798635 1.894044 -0.145736
v -0.798635 1.964372 -0.539505
v -0.841601 1.925922 -0.546372
v -0.841601 1.855593 -0.152603
v -0.841601 1.855593 -0.152603
v -0.841601 1.925922 -0.546372
v -0.882660 1.885503 -0.553591
v -0.882661 1.815174 -0.159822
v -0.882661 1.815174 -0.159822
v -0.882660 1.885503 -0.553591
v -0.921719 1.843206 -0.561145
v -0.921719 1.772877 -0.167376
v -0.921719 1.772877 -0.167376
v -0.921719 1.843206 -0.561145
v -0.958690 1.799127 -0.569018
v -0.958690 1.728799 -0.175249
v -0.958690 1.728799 -0.175249
v -0.958690 1.799127 -0.569018
v -0.993488 1.753367 -0.577191
v -0.993488 1.683039 -0.183422
v -0.993488 1.683039 -0.183422
v -0.993488 1.753367 -0.577191
v -1.026035 1.706029 -0.585645
v -1.026035 1.635700 -0.191877
v -1.026035 1.635700 -0.191877
v -1.026035 1.706029 -0.585645
v -1.056256 1.657219 -0.594363
v -1.056256 1.586891 -0.200594
v -1.056256 1.586891 -0.200594
v -1.056256 1.657219 -0.594363
v -1.084085 1.607050 -0.603323
v -1.084085 1.536722 -0.209555
v -1.084085 1.536722 -0.209555
v -1.084085 1.607050 -0.603323
v -1.109457 1.555634 -0.612507
v -1.109457 1.485306 -0.218738
v -1.109457 1.485306 -0.218738
v -1.109457 1.555634 -0.612507
v -1.132315 1.503088 -0.621891
v -1.132315 1.432759 -0.228123
v -1.132315 1.432759 -0.228123
v -1.132315 1.503088 -0.621891
v -1.152607 1.449530 -0.631457
v -1.152607 1.379201 -0.237688
v -1.152607 1.379201 -0.237688
v -1.152607 1.449530 -0.631457
v -1.170288 1.395082 -0.641181
v -1.170287 1.324754 -0.247413
v -1.170287 1.324754 -0.247413
v -1.170288 1.395082 -0.641181
v -1.185317 1.339869 -0.651043
v -1.185316 1.269540 -0.257274
v -1.185316 1.269540 -0.257274
v -1.185317 1.339869 -0.651043
v -1.197660 1.284013 -0.661019
v -1.197660 1.213685 -0.267250
v -1.197660 1.213685 -0.267250
v -1.197660 1.284013 -0.661019
v -1.207289 1.227643 -0.671087
v -1.207289 1.157315 -0.277318
v -1.207289 1.157315 -0.277318
v -1.207289 1.227643 -0.671087
v -1.214183 1.170886 -0.681224
v -1.214183 1.100557 -0.287455
v -1.214183 1.100557 -0.287455
v -1.214183 1.170886 -0.681224
v -1.218325 1.113870 -0.691407
v -1.218325 1.043541 -0.297638
v -1.218325 1.043541 -0.297638
v -1.218325 1.113870 -0.691407
v -1.219708 1.056724 -0.701613
v -1.219708 0.986395 -0.307845
v -1.219708 0.986395 -0.307845
v -1.219708 1.056724 -0.701613
v -1.218326 0.999578 -0.711820
v -1.218326 0.929250 -0.318051
v -1.218326 0.929250 -0.318051
v -1.218326 0.999578 -0.711820
v -1.214184 0.942562 -0.722003
v -1.214184 0.872234 -0.328234
v -1.214184 0.872234 -0.328234
v -1.214184 0.942562 -0.722003
v -1.207291 0.885805 -0.732140
v -1.207291 0.815476 -0.338371
v -1.207291 0.815476 -0.338371
v -1.207291 0.885805 -0.732140
v -1.197662 0.829434 -0.742208
v -1.197662 0.759106 -0.348439
v -1.197662 0.759106 -0.348439
v -1.197662 0.829434 -0.742208
v -1.185319 0.773579 -0.752184
v -1.185319 0.703250 -0.358415
v -1.185319 0.703250 -0.358415
v -1.185319 0.773579 -0.752184
v -1.170291 0.718365 -0.762045
v -1.170291 0.648036 -0.368277
v -1.170291 0.648036 -0.368277
v -1.170291 0.718365 -0.762045
v -1.152611 0.663917 -0.771770
v -1.152611 0.593589 -0.378001
v -1.152611 0.593589 -0.378001
v -1.152611 0.663917 -0.771770
v -1.132319 0.610360 -0.781335
v -1.132319 0.540031 -0.387567
v -1.132319 0.540031 -0.387567
v -1.132319 0.610360 -0.781335
v -1.109462 0.557813 -0.790721
v -1.109462 0.487484 -0.396952
v -1.109462 0.487484 -0.396952
v -1.109462 0.557813 -0.790721
v -1.084090 0.506396 -0.799904
v -1.084090 0.436068 -0.406135
v -1.084090 0.436068 -0.406135
v -1.084090 0.506396 -0.799904
v -1.056262 0.456227 -0.808864
v -1.056262 0.385898 -0.415095
v -1.056262 0.385898 -0.415095
v -1.056262 0.456227 -0.808864
v -1.026041 0.407417 -0.817582
v -1.026041 0.337089 -0.423813
v -1.026041 0.337089 -0.423813
v -1.026041 0.407417 -0.817582
v -0.993495 0.360079 -0.826037
v -0.993495 0.289750 -0.432268
v -0.993495 0.289750 -0.432268
v -0.993495 0.360079 -0.826037
v -0.958697 0.314318 -0.834209
v -0.958697 0.243990 -0.440441
v -0.958697 0.243990 -0.440441
v -0.958697 0.314318 -0.834209
v -0.921727 0.270239 -0.842082
v -0.921727 0.199911 -0.448313
v -0.921727 0.199911 -0.448313
v -0.921727 0.270239 -0.842082
v -0.882669 0.227942 -0.849637
v -0.882669 0.157614 -0.455868
v -0.882669 0.157614 -0.455868
v -0.882669 0.227942 -0.849637
v -0.841610 0.187522 -0.856856
v -0.841610 0.117194 -0.463087
v -0.841610 0.117194 -0.463087
v -0.841610 0.187522 -0.856856
v -0.798644 0.149072 -0.863723
v -0.798644 0.078743 -0.469954
v -0.798644 0.078743 -0.469954
v -0.798644 0.149072 -0.863723
v -0.753868 0.112677 -0.870223
v -0.753868 0.042349 -0.476454
v -0.753868 0.042349 -0.476454
v -0.753868 0.112677 -0.870223
v -0.707384 0.078421 -0.876341
v -0.707384 0.008093 -0.482573
v -0.707384 0.008093 -0.482573
v -0.707384 0.078421 -0.876341
v -0.659296 0.046381 -0.882064
v -0.659296 -0.023947 -0.488295
v -0.659296 -0.023947 -0.488295
v -0.659296 0.046381 -0.882064
v -0.609715 0.016630 -0.887378
v -0.609715 -0.053698 -0.493609
v -0.609715 -0.053698 -0.493609
v -0.609715 0.016630 -0.887378
v -0.558752 -0.010765 -0.892270
v -0.558751 -0.081093 -0.498502
v -0.558751 -0.081093 -0.498502
v -0.558752 -0.010765 -0.892270
v -0.506522 -0.035742 -0.896731
v -0.506522 -0.106070 -0.502962
v -0.506522 -0.106070 -0.502962
v -0.506522 -0.035742 -0.896731
v -0.453144 -0.058244 -0.900750
v -0.453144 -0.128572 -0.506981
v -0.453144 -0.128572 -0.506981
v -0.453144 -0.058244 -0.900750
v -0.398739 -0.078220 -0.904318
v -0.398739 -0.148549 -0.510549
v -0.398739 -0.148549 -0.510549
v -0.398739 -0.078220 -0.904318
v -0.343430 -0.095626 -0.907427
v -0.343430 -0.165954 -0.513658
v -0.343430 -0.165954 -0.513658
v -0.343430 -0.095626 -0.907427
v -0.287342 -0.110421 -0.910069
v -0.287342 -0.180749 -0.516300
v -0.287342 -0.180749 -0.516300
v -0.287342 -0.110421 -0.910069
v -0.230603 -0.122572 -0.912239
v -0.230603 -0.192900 -0.518471
v -0.230603 -0.192900 -0.518471
v -0.230603 -0.122572 -0.912239
v -0.173341 -0.132051 -0.913932
v -0.173341 -0.202380 -0.520164
v -0.173341 -0.202380 -0.520164
v -0.173341 -0.132051 -0.913932
v -0.115685 -0.138838 -0.915145
v -0.115685 -0.209166 -0.521376
v -0.115685 -0.209166 -0.521376
v -0.115685 -0.138838 -0.915145
v -0.057767 -0.142916 -0.915873
v -0.057767 -0.213245 -0.522104
v -0.057767 -0.213245 -0.522104
v -0.057767 -0.142916 -0.915873
v 0.000292 -0.144277 -0.916116
v 0.000292 -0.214605 -0.522347
v -0.057767 -0.213245 -0.522104
v 0.000292 -0.214605 -0.522347
v 0.058342 -0.213245 -0.522104
v 0.116261 -0.209167 -0.521376
v 0.173917 -0.202381 -0.520164
v 0.231179 -0.192902 -0.518471
v 0.287918 -0.180751 -0.516301
v 0.344006 -0.165957 -0.513659
v 0.399315 -0.148552 -0.510550
v 0.453721 -0.128576 -0.506982
v 0.507099 -0.106074 -0.502963
v 0.559329 -0.081097 -0.498502
v 0.610292 -0.053703 -0.493610
v 0.659874 -0.023952 -0.488296
v 0.707962 0.008088 -0.482573
v 0.754446 0.042344 -0.476455
v 0.799223 0.078738 -0.469955
v 0.842189 0.117189 -0.463088
v 0.883248 0.157608 -0.455869
v 0.922307 0.199905 -0.448314
v 0.959277 0.243984 -0.440442
v 0.994075 0.289744 -0.432269
v 1.026622 0.337083 -0.423814
v 1.056844 0.385892 -0.415096
v 1.084672 0.436062 -0.406136
v 1.110044 0.487478 -0.396953
v 1.132902 0.540025 -0.387568
v 1.153193 0.593583 -0.378002
v 1.170874 0.648031 -0.368278
v 1.185903 0.703245 -0.358416
v 1.198246 0.759100 -0.348440
v 1.207875 0.815471 -0.338372
v 1.214768 0.872228 -0.328235
v 1.218911 0.929245 -0.318052
v 1.220292 0.986390 -0.307846
v 1.218911 1.043536 -0.297639
v 1.214768 1.100552 -0.287456
v 1.207875 1.157310 -0.277319
v 1.198245 1.213680 -0.267251
v 1.185903 1.269536 -0.257275
v 1.170874 1.324750 -0.247413
v 1.153193 1.379197 -0.237689
v 1.132901 1.432755 -0.228123
v 1.110043 1.485302 -0.218738
v 1.084671 1.536718 -0.209555
v 1.056843 1.586888 -0.200595
v 1.026621 1.635697 -0.191877
v 0.994075 1.683036 -0.183422
v 0.959277 1.728796 -0.175249
v 0.922307 1.772875 -0.167377
v 0.883248 1.815171 -0.159822
v 0.842189 1.855591 -0.152603
v 0.799223 1.894041 -0.145736
v 0.754447 1.930436 -0.139236
v 0.707962 1.964691 -0.133118
v 0.659875 1.996731 -0.127395
v 0.610293 2.026482 -0.122082
v 0.559329 2.053877 -0.117189
v 0.507100 2.078853 -0.112728
v 0.453722 2.101355 -0.108709
v 0.399316 2.121331 -0.105141
v 0.344007 2.138736 -0.102033
v 0.287920 2.153530 -0.099390
v 0.231180 2.165681 -0.097220
v 0.173918 2.175160 -0.095527
v 0.116262 2.181947 -0.094315
v 0.058344 2.186024 -0.093587
v 0.000294 2.187385 -0.093344
v -0.057755 2.186025 -0.093587
v -0.115674 2.181947 -0.094315
v -0.173329 2.175161 -0.095527
v -0.230592 2.165682 -0.097220
v -0.287331 2.153531 -0.099390
v -0.343419 2.138737 -0.102033
v -0.398728 2.121332 -0.105141
v -0.453133 2.101356 -0.108709
v -0.506511 2.078855 -0.112728
v -0.558741 2.053878 -0.117189
v -0.609705 2.026484 -0.122081
v -0.659287 1.996733 -0.127395
v -0.707374 1.964694 -0.133117
v -0.753859 1.930438 -0.139236
v -0.798635 1.894044 -0.145736
v -0.841601 1.855593 -0.152603
v -0.882661 1.815174 -0.159822
v -0.921719 1.772877 -0.167376
v -0.958690 1.728799 -0.175249
v -0.993488 1.683039 -0.183422
v -1.026035 1.635700 -0.191877
v -1.056256 1.586891 -0.200594
v -1.084085 1.536722 -0.209555
v -1.109457 1.485306 -0.218738
v -1.132315 1.432759 -0.228123
v -1.152607 1.379201 -0.237688
v -1.170287 1.324754 -0.247413
v -1.185316 1.269540 -0.257274
v -1.197660 1.213685 -0.267250
v -1.207289 1.157315 -0.277318
v -1.214183 1.100557 -0.287455
v -1.218325 1.043541 -0.297638
v -1.219708 0.986395 -0.307845
v -1.218326 0.929250 -0.318051
v -1.214184 0.872234 -0.328234
v -1.207291 0.815476 -0.338371
v -1.197662 0.759106 -0.348439
v -1.185319 0.703250 -0.358415
v -1.170291 0.648036 -0.368277
v -1.152611 0.593589 -0.378001
v -1.132319 0.540031 -0.387567
v -1.109462 0.487484 -0.396952
v -1.084090 0.436068 -0.406135
v -1.056262 0.385898 -0.415095
v -1.026041 0.337089 -0.423813
v -0.993495 0.289750 -0.432268
v -0.958697 0.243990 -0.440441
v -0.921727 0.199911 -0.448313
v -0.882669 0.157614 -0.455868
v -0.841610 0.117194 -0.463087
v -0.798644 0.078743 -0.469954
v -0.753868 0.042349 -0.476454
v -0.707384 0.008093 -0.482573
v -0.659296 -0.023947 -0.488295
v -0.609715 -0.053698 -0.493609
v -0.558751 -0.081093 -0.498502
v -0.506522 -0.106070 -0.502962
v -0.453144 -0.128572 -0.506981
v -0.398739 -0.148549 -0.510549
v -0.343430 -0.165954 -0.513658
v -0.287342 -0.180749 -0.516300
v -0.230603 -0.192900 -0.518471
v -0.173341 -0.202380 -0.520164
v -0.115685 -0.209166 -0.521376
v 0.116261 -0.138839 -0.915145
v 0.058342 -0.142917 -0.915873
v 0.000292 -0.144277 -0.916116
v -0.057767 -0.142916 -0.915873
v -0.115685 -0.138838 -0.915145
v -0.173341 -0.132051 -0.913932
v -0.230603 -0.122572 -0.912239
v -0.287342 -0.110421 -0.910069
v -0.343430 -0.095626 -0.907427
v -0.398739 -0.078220 -0.904318
v -0.453144 -0.058244 -0.900750
v -0.506522 -0.035742 -0.896731
v -0.558752 -0.010765 -0.892270
v -0.609715 0.016630 -0.887378
v -0.659296 0.046381 -0.882064
v -0.707384 0.078421 -0.876341
v -0.753868 0.112677 -0.870223
v -0.798644 0.149072 -0.863723
v -0.841610 0.187522 -0.856856
v -0.882669 0.227942 -0.849637
v -0.921727 0.270239 -0.842082
v -0.958697 0.314318 -0.834209
v -0.993495 0.360079 -0.826037
v -1.026041 0.407417 -0.817582
v -1.056262 0.456227 -0.808864
v -1.084090 0.506396 -0.799904
v -1.109462 0.557813 -0.790721
v -1.132319 0.610360 -0.781335
v -1.152611 0.663917 -0.771770
v -1.170291 0.718365 -0.762045
v -1.185319 0.773579 -0.752184
v -1.197662 0.829434 -0.742208
v -1.207291 0.885805 -0.732140
v -1.214184 0.942562 -0.722003
v -1.218326 0.999578 -0.711820
v -1.219708 1.056724 -0.701613
v -1.218325 1.113870 -0.691407
v -1.214183 1.170886 -0.681224
v -1.207289 1.227643 -0.671087
v -1.197660 1.284013 -0.661019
v -1.185317 1.339869 -0.651043
v -1.170288 1.395082 -0.641181
v -1.152607 1.449530 -0.631457
v -1.132315 1.503088 -0.621891
v -1.109457 1.555634 -0.612507
v -1.084085 1.607050 -0.603323
v -1.056256 1.657219 -0.594363
v -1.026035 1.706029 -0.585645
v -0.993488 1.753367 -0.577191
v -0.958690 1.799127 -0.569018
v -0.921719 1.843206 -0.561145
v -0.882660 1.885503 -0.553591
v -0.841601 1.925922 -0.546372
v -0.798635 1.964372 -0.539505
v -0.753859 2.000767 -0.533004
v -0.707374 2.035022 -0.526886
v -0.659287 2.067061 -0.521164
v -0.609705 2.096812 -0.515850
v -0.558741 2.124207 -0.510958
v -0.506511 2.149183 -0.506497
v -0.453133 2.171685 -0.502478
v -0.398728 2.191660 -0.498910
v -0.343419 2.209065 -0.495802
v -0.287331 2.223860 -0.493159
v -0.230592 2.236010 -0.490989
v -0.173329 2.245489 -0.489296
v -0.115674 2.252275 -0.488084
v -0.057755 2.256353 -0.487356
v 0.000294 2.257713 -0.487113
v 0.058344 2.256353 -0.487356
v 0.116262 2.252275 -0.488084
v 0.173918 2.245489 -0.489296
v 0.231180 2.236010 -0.490989
v 0.287920 2.223859 -0.493159
v 0.344007 2.209064 -0.495802
v 0.399316 2.191659 -0.498910
v 0.453722 2.171683 -0.502478
v 0.507100 2.149182 -0.506497
v 0.559329 2.124205 -0.510958
v 0.610293 2.096810 -0.515851
v 0.659875 2.067059 -0.521164
v 0.707962 2.035019 -0.526887
v 0.754447 2.000764 -0.533005
v 0.799223 1.964370 -0.539505
v 0.842189 1.925919 -0.546372
v 0.883248 1.885499 -0.553591
v 0.922307 1.843203 -0.561146
v 0.959277 1.799124 -0.569018
v 0.994075 1.753364 -0.577191
v 1.026621 1.706026 -0.585646
v 1.056843 1.657216 -0.594363
v 1.084671 1.607047 -0.603324
v 1.110043 1.555630 -0.612507
v 1.132901 1.503084 -0.621892
v 1.153193 1.449526 -0.631458
v 1.170874 1.395078 -0.641182
v 1.185902 1.339864 -0.651044
v 1.198245 1.284009 -0.661020
v 1.207875 1.227638 -0.671088
v 1.214768 1.170880 -0.681225
v 1.218911 1.113864 -0.691408
v 1.220293 1.056719 -0.701614
v 1.218911 0.999573 -0.711821
v 1.214768 0.942557 -0.722004
v 1.207875 0.885799 -0.732141
v 1.198245 0.829429 -0.742209
v 1.185903 0.773573 -0.752185
v 1.170874 0.718359 -0.762046
v 1.153193 0.663911 -0.771771
v 1.132901 0.610353 -0.781337
v 1.110044 0.557807 -0.790722
v 1.084672 0.506391 -0.799905
v 1.056844 0.456221 -0.808865
v 1.026622 0.407411 -0.817583
v 0.994075 0.360073 -0.826038
v 0.959277 0.314312 -0.834211
v 0.922307 0.270234 -0.842083
v 0.883248 0.227937 -0.849638
v 0.842189 0.187517 -0.856857
v 0.799223 0.149067 -0.863724
v 0.754446 0.112672 -0.870224
v 0.707962 0.078416 -0.876342
v 0.659874 0.046377 -0.882065
v 0.610292 0.016626 -0.887378
v 0.559329 -0.010769 -0.892271
v 0.507099 -0.035746 -0.896732
v 0.453721 -0.058247 -0.900751
v 0.399315 -0.078223 -0.904319
v 0.344006 -0.095628 -0.907427
v 0.287918 -0.110423 -0.910070
v 0.231179 -0.122574 -0.912240
v 0.173917 -0.132053 -0.913933
vt 0.058965 0.010086
vt 0.098713 0.010086
vt 0.098713 0.049834
vt 0.058965 0.049834
vt 0.098713 0.089583
vt 0.058965 0.089583
vt 0.098713 0.129331
vt 0.058965 0.129331
vt 0.098713 0.169080
vt 0.058965 0.169080
vt 0.019216 0.089583
vt 0.019216 0.129331
vt 0.138462 0.089583
vt 0.138462 0.129331
vt 0.165353 0.898239
vt 0.165353 0.975405
vt 0.164184 0.975405
vt 0.164184 0.898239
vt 0.163015 0.975405
vt 0.163015 0.898239
vt 0.161846 0.975405
vt 0.161846 0.898239
vt 0.160677 0.975405
vt 0.160677 0.898239
vt 0.159508 0.975405
vt 0.159508 0.898239
vt 0.158338 0.975405
vt 0.158338 0.898239
vt 0.157169 0.975405
vt 0.157169 0.898239
vt 0.156000 0.975405
vt 0.156000 0.898239
vt 0.154831 0.975405
vt 0.154831 0.898239
vt 0.153662 0.975405
vt 0.153662 0.898239
vt 0.152493 0.975405
vt 0.152493 0.898239
vt 0.151323 0.975405
vt 0.151323 0.898239
vt 0.150154 0.975405
vt 0.150154 0.898239
vt 0.148985 0.975405
vt 0.148985 0.898239
vt 0.147816 0.975405
vt 0.147816 0.898239
vt 0.146647 0.975405
vt 0.146647 0.898239
vt 0.145478 0.975405
vt 0.145478 0.898239
vt 0.144308 0.975405
vt 0.144308 0.898239
vt 0.143139 0.975405
vt 0.143139 0.898239
vt 0.141970 0.975405
vt 0.141970 0.898239
vt 0.140801 0.975405
vt 0.140801 0.898239
vt 0.139632 0.975405
vt 0.139632 0.898239
vt 0.138463 0.975405
vt 0.138463 0.898239
vt 0.137293 0.975405
vt 0.137293 0.898239
vt 0.136124 0.975405
vt 0.136124 0.898239
vt 0.134955 0.975405
vt 0.134955 0.898239
vt 0.133786 0.975405
vt 0.133786 0.898239
vt 0.132617 0.975405
vt 0.132617 0.898239
vt 0.131447 0.975405
vt 0.131447 0.898239
vt 0.130278 0.975405
vt 0.130278 0.898239
vt 0.129109 0.975405
vt 0.129109 0.898239
vt 0.127940 0.975405
vt 0.127940 0.898239
vt 0.126771 0.975405
vt 0.126771 0.898239
vt 0.125602 0.975405
vt 0.125602 0.898239
vt 0.124432 0.975405
vt 0.124432 0.898239
vt 0.123263 0.975405
vt 0.123263 0.898239
vt 0.122094 0.975405
vt 0.122094 0.898239
vt 0.120925 0.975405
vt 0.120925 0.898239
vt 0.119756 0.975405
vt 0.119756 0.898239
vt 0.118587 0.975405
vt 0.118587 0.898239
vt 0.117417 0.975405
vt 0.117417 0.898239
vt 0.116248 0.975405
vt 0.116248 0.898239
vt 0.115079 0.975405
vt 0.115079 0.898239
vt 0.113910 0.975405
vt 0.113910 0.898239
vt 0.112741 0.975405
vt 0.112741 0.898239
vt 0.111572 0.975405
vt 0.111572 0.898239
vt 0.110402 0.975405
vt 0.110402 0.898239
vt 0.109233 0.975405
vt 0.109233 0.898239
vt 0.108064 0.975405
vt 0.108064 0.898239
vt 0.106895 0.975405
vt 0.106895 0.898239
vt 0.105726 0.975405
vt 0.105726 0.898239
vt 0.104557 0.975405
vt 0.104557 0.898239
vt 0.103387 0.975405
vt 0.103387 0.898239
vt 0.102218 0.975405
vt 0.102218 0.898239
vt 0.101049 0.975405
vt 0.101049 0.898239
vt 0.099880 0.975405
vt 0.099880 0.898239
vt 0.098711 0.975405
vt 0.098711 0.898239
vt 0.097542 0.975405
vt 0.097542 0.898239
vt 0.096372 0.975405
vt 0.096372 0.898239
vt 0.095203 0.975405
vt 0.095203 0.898239
vt 0.094034 0.975405
vt 0.094034 0.898239
vt 0.092865 0.975405
vt 0.092865 0.898239
vt 0.091696 0.975405
vt 0.091696 0.898239
vt 0.090526 0.975405
vt 0.090526 0.898239
vt 0.089357 0.975405
vt 0.089357 0.898239
vt 0.088188 0.975405
vt 0.088188 0.898239
vt 0.087019 0.975405
vt 0.087019 0.898239
vt 0.085850 0.975405
vt 0.085850 0.898239
vt 0.084681 0.975405
vt 0.084681 0.898239
vt 0.083511 0.975405
vt 0.083511 0.898239
vt 0.082342 0.975405
vt 0.082342 0.898239
vt 0.081173 0.975405
vt 0.081173 0.898239
vt 0.080004 0.975405
vt 0.080004 0.898239
vt 0.078835 0.975405
vt 0.078835 0.898239
vt 0.077666 0.975405
vt 0.077666 0.898239
vt 0.076496 0.975405
vt 0.076496 0.898239
vt 0.075327 0.975405
vt 0.075327 0.898239
vt 0.074158 0.975405
vt 0.074158 0.898239
vt 0.072989 0.975405
vt 0.072989 0.898239
vt 0.071820 0.975405
vt 0.071820 0.898239
vt 0.070651 0.975405
vt 0.070651 0.898239
vt 0.069481 0.975405
vt 0.069481 0.898239
vt 0.068312 0.975405
vt 0.068312 0.898239
vt 0.067143 0.975405
vt 0.067143 0.898239
vt 0.065974 0.975405
vt 0.065974 0.898239
vt 0.064805 0.975405
vt 0.064805 0.898239
vt 0.063636 0.975405
vt 0.063636 0.898239
vt 0.062466 0.975405
vt 0.062466 0.898239
vt 0.061297 0.975405
vt 0.061297 0.898239
vt 0.060128 0.975405
vt 0.060128 0.898239
vt 0.058959 0.975405
vt 0.058959 0.898239
vt 0.057790 0.975405
vt 0.057790 0.898239
vt 0.056621 0.975405
vt 0.056621 0.898239
vt 0.055451 0.975405
vt 0.055451 0.898239
vt 0.054282 0.975405
vt 0.054282 0.898239
vt 0.053113 0.975405
vt 0.053113 0.898239
vt 0.051944 0.975405
vt 0.051944 0.898239
vt 0.050775 0.975405
vt 0.050775 0.898239
vt 0.049605 0.975405
vt 0.049605 0.898239
vt 0.048436 0.975405
vt 0.048436 0.898239
vt 0.047267 0.975405
vt 0.047267 0.898239
vt 0.046098 0.975405
vt 0.046098 0.898239
vt 0.044929 0.975405
vt 0.044929 0.898239
vt 0.043760 0.975405
vt 0.043760 0.898239
vt 0.042590 0.975405
vt 0.042590 0.898239
vt 0.041421 0.975405
vt 0.041421 0.898239
vt 0.040252 0.975405
vt 0.040252 0.898239
vt 0.039083 0.975405
vt 0.039083 0.898239
vt 0.037914 0.975405
vt 0.037914 0.898239
vt 0.036745 0.975405
vt 0.036745 0.898239
vt 0.035575 0.975405
vt 0.035575 0.898239
vt 0.034406 0.975405
vt 0.034406 0.898239
vt 0.033237 0.975405
vt 0.033237 0.898239
vt 0.032068 0.975405
vt 0.032068 0.898239
vt 0.030899 0.975405
vt 0.030899 0.898239
vt 0.029730 0.975405
vt 0.029730 0.898239
vt 0.028560 0.975405
vt 0.028560 0.898239
vt 0.027391 0.975405
vt 0.027391 0.898239
vt 0.026222 0.975405
vt 0.026222 0.898239
vt 0.025053 0.975405
vt 0.025053 0.898239
vt 0.023884 0.975405
vt 0.023884 0.898239
vt 0.022715 0.975405
vt 0.022715 0.898239
vt 0.021545 0.975405
vt 0.021545 0.898239
vt 0.020376 0.975405
vt 0.020376 0.898239
vt 0.019207 0.975405
vt 0.019207 0.898239
vt 0.018038 0.975405
vt 0.018038 0.898239
vt 0.016869 0.975405
vt 0.016869 0.898239
vt 0.015700 0.975405
vt 0.015700 0.898239
vt 0.014530 0.975405
vt 0.014530 0.898239
vt 0.013361 0.975405
vt 0.013361 0.898239
vt 0.012192 0.975405
vt 0.012192 0.898239
vt 0.011023 0.975405
vt 0.011023 0.898239
vt 0.914457 0.968747
vt 0.916734 0.968801
vt 0.919011 0.968747
vt 0.921282 0.968584
vt 0.923543 0.968314
vt 0.925789 0.967936
vt 0.928014 0.967452
vt 0.930214 0.966863
vt 0.932383 0.966169
vt 0.934517 0.965374
vt 0.936611 0.964477
vt 0.938659 0.963482
vt 0.940658 0.962391
vt 0.942603 0.961205
vt 0.944489 0.959929
vt 0.946312 0.958564
vt 0.948068 0.957114
vt 0.949753 0.955582
vt 0.951363 0.953972
vt 0.952895 0.952287
vt 0.954345 0.950531
vt 0.955710 0.948707
vt 0.956986 0.946821
vt 0.958172 0.944877
vt 0.959263 0.942878
vt 0.960258 0.940830
vt 0.961155 0.938736
vt 0.961950 0.936602
vt 0.962644 0.934433
vt 0.963233 0.932233
vt 0.963717 0.930008
vt 0.964095 0.927762
vt 0.964365 0.925501
vt 0.964528 0.923229
vt 0.964582 0.920953
vt 0.964528 0.918676
vt 0.964365 0.916404
vt 0.964095 0.914143
vt 0.963717 0.911897
vt 0.963233 0.909672
vt 0.962644 0.907472
vt 0.961950 0.905303
vt 0.961155 0.903169
vt 0.960258 0.901076
vt 0.959263 0.899027
vt 0.958172 0.897029
vt 0.956986 0.895084
vt 0.955710 0.893198
vt 0.954345 0.891375
vt 0.952895 0.889619
vt 0.951363 0.887934
vt 0.949753 0.886323
vt 0.948068 0.884791
vt 0.946312 0.883341
vt 0.944489 0.881977
vt 0.942603 0.880700
vt 0.940658 0.879515
vt 0.938659 0.878423
vt 0.936611 0.877428
vt 0.934517 0.876532
vt 0.932383 0.875736
vt 0.930214 0.875043
vt 0.928015 0.874453
vt 0.925789 0.873969
vt 0.923543 0.873591
vt 0.921282 0.873321
vt 0.919011 0.873159
vt 0.916734 0.873104
vt 0.914457 0.873159
vt 0.912186 0.873321
vt 0.909924 0.873591
vt 0.907679 0.873969
vt 0.905453 0.874453
vt 0.903253 0.875043
vt 0.901084 0.875736
vt 0.898950 0.876532
vt 0.896857 0.877428
vt 0.894809 0.878423
vt 0.892810 0.879515
vt 0.890865 0.880700
vt 0.888979 0.881977
vt 0.887156 0.883341
vt 0.885400 0.884791
vt 0.883715 0.886323
vt 0.882104 0.887933
vt 0.880573 0.889619
vt 0.879123 0.891375
vt 0.877758 0.893198
vt 0.876481 0.895084
vt 0.875296 0.897028
vt 0.874205 0.899027
vt 0.873210 0.901076
vt 0.872313 0.903169
vt 0.871517 0.905303
vt 0.870824 0.907472
vt 0.870234 0.909672
vt 0.869750 0.911897
vt 0.869373 0.914143
vt 0.869102 0.916404
vt 0.868940 0.918676
vt 0.868886 0.920952
vt 0.868940 0.923229
vt 0.869102 0.925501
vt 0.869372 0.927762
vt 0.869750 0.930008
vt 0.870234 0.932233
vt 0.870824 0.934433
vt 0.871517 0.936602
vt 0.872313 0.938736
vt 0.873209 0.940829
vt 0.874204 0.942878
vt 0.875296 0.944877
vt 0.876481 0.946821
vt 0.877758 0.948707
vt 0.879122 0.950530
vt 0.880572 0.952286
vt 0.882104 0.953972
vt 0.883714 0.955582
vt 0.885400 0.957114
vt 0.887156 0.958564
vt 0.888979 0.959929
vt 0.890865 0.961205
vt 0.892809 0.962390
vt 0.894808 0.963482
vt 0.896857 0.964477
vt 0.898950 0.965373
vt 0.901084 0.966169
vt 0.903253 0.966863
vt 0.905453 0.967452
vt 0.907678 0.967936
vt 0.909924 0.968314
vt 0.912185 0.968584
vt 0.629420 0.983003
vt 0.606291 0.988614
vt 0.582922 0.993118
vt 0.559359 0.996506
vt 0.535668 0.998768
vt 0.511895 0.999900
vt 0.488096 0.999900
vt 0.464325 0.998767
vt 0.440631 0.996505
vt 0.417071 0.993117
vt 0.393704 0.988613
vt 0.370576 0.983002
vt 0.347740 0.976296
vt 0.325250 0.968512
vt 0.303156 0.959667
vt 0.281505 0.949779
vt 0.260352 0.938874
vt 0.239742 0.926975
vt 0.219719 0.914107
vt 0.200331 0.900300
vt 0.181625 0.885589
vt 0.163638 0.870003
vt 0.146415 0.853580
vt 0.129991 0.836355
vt 0.114406 0.818369
vt 0.099695 0.799662
vt 0.085889 0.780275
vt 0.073022 0.760253
vt 0.061123 0.739642
vt 0.050217 0.718488
vt 0.040330 0.696838
vt 0.031485 0.674743
vt 0.023701 0.652252
vt 0.016996 0.629417
vt 0.011385 0.606288
vt 0.006881 0.582919
vt 0.003494 0.559361
vt 0.001232 0.535673
vt 0.000100 0.511899
vt 0.000100 0.488098
vt 0.001233 0.464324
vt 0.003495 0.440631
vt 0.006882 0.417074
vt 0.011387 0.393702
vt 0.016998 0.370577
vt 0.023703 0.347740
vt 0.031487 0.325250
vt 0.040334 0.303152
vt 0.050219 0.281507
vt 0.061125 0.260353
vt 0.073025 0.239742
vt 0.085892 0.219720
vt 0.099698 0.200334
vt 0.114410 0.181625
vt 0.129995 0.163640
vt 0.146419 0.146415
vt 0.163643 0.129992
vt 0.181631 0.114406
vt 0.200340 0.099693
vt 0.219725 0.085889
vt 0.239747 0.073022
vt 0.260358 0.061123
vt 0.281511 0.050217
vt 0.303159 0.040331
vt 0.325255 0.031485
vt 0.347744 0.023702
vt 0.370579 0.016997
vt 0.393710 0.011386
vt 0.417080 0.006881
vt 0.440634 0.003495
vt 0.464330 0.001232
vt 0.488099 0.000100
vt 0.511901 0.000100
vt 0.535671 0.001232
vt 0.559365 0.003495
vt 0.582925 0.006882
vt 0.606293 0.011386
vt 0.629421 0.016997
vt 0.652258 0.023703
vt 0.674748 0.031487
vt 0.696842 0.040332
vt 0.718491 0.050219
vt 0.739646 0.061125
vt 0.760260 0.073027
vt 0.780277 0.085891
vt 0.799665 0.099697
vt 0.818373 0.114409
vt 0.836360 0.129995
vt 0.853583 0.146418
vt 0.870005 0.163640
vt 0.885592 0.181628
vt 0.900304 0.200336
vt 0.914109 0.219724
vt 0.926975 0.239743
vt 0.938876 0.260356
vt 0.949782 0.281510
vt 0.959669 0.303159
vt 0.968514 0.325255
vt 0.976298 0.347745
vt 0.983002 0.370577
vt 0.988614 0.393709
vt 0.993118 0.417078
vt 0.996505 0.440637
vt 0.998768 0.464328
vt 0.999900 0.488101
vt 0.999900 0.511901
vt 0.998767 0.535674
vt 0.996505 0.559368
vt 0.993118 0.582923
vt 0.988614 0.606292
vt 0.983003 0.629421
vt 0.976296 0.652260
vt 0.968513 0.674748
vt 0.959667 0.696845
vt 0.949781 0.718492
vt 0.938874 0.739648
vt 0.926976 0.760256
vt 0.914109 0.780276
vt 0.900303 0.799665
vt 0.885592 0.818372
vt 0.870006 0.836359
vt 0.853580 0.853586
vt 0.836356 0.870008
vt 0.818368 0.885595
vt 0.799662 0.900305
vt 0.780274 0.914111
vt 0.760253 0.926977
vt 0.739643 0.938877
vt 0.718489 0.949782
vt 0.696841 0.959669
vt 0.674746 0.968514
vt 0.652252 0.976299
s 0
f 1/1 2/2 3/3
f 1/1 3/3 4/4
f 5/4 6/3 7/5
f 5/4 7/5 8/6
f 9/6 10/5 11/7
f 9/6 11/7 12/8
f 13/8 14/7 15/9
f 13/8 15/9 16/10
f 17/11 18/6 19/8
f 17/11 19/8 20/12
f 21/5 22/13 23/14
f 21/5 23/14 24/7
f 25/1 26/2 27/3
f 25/1 27/3 28/4
f 29/4 30/3 31/5
f 29/4 31/5 32/6
f 33/6 34/5 35/7
f 33/6 35/7 36/8
f 37/8 38/7 39/9
f 37/8 39/9 40/10
f 41/11 42/6 43/8
f 41/11 43/8 44/12
f 45/5 46/13 47/14
f 45/5 47/14 48/7
f 49/1 50/2 51/3
f 49/1 51/3 52/4
f 53/4 54/3 55/5
f 53/4 55/5 56/6
f 57/6 58/5 59/7
f 57/6 59/7 60/8
f 61/8 62/7 63/9
f 61/8 63/9 64/10
f 65/11 66/6 67/8
f 65/11 67/8 68/12
f 69/5 70/13 71/14
f 69/5 71/14 72/7
f 73/15 74/16 75/17
f 73/15 75/17 76/18
f 77/18 78/17 79/19
f 77/18 79/19 80/20
s 1
f 81/20 82/19 83/21
s 0
f 81/20 83/21 84/22
f 85/22 86/21 87/23
f 85/22 87/23 88/24
f 89/24 90/23 91/25
f 89/24 91/25 92/26
f 93/26 94/25 95/27
f 93/26 95/27 96/28
f 97/28 98/27 99/29
f 97/28 99/29 100/30
f 101/30 102/29 103/31
f 101/30 103/31 104/32
f 105/32 106/31 107/33
f 105/32 107/33 108/34
f 109/34 110/33 111/35
f 109/34 111/35 112/36
f 113/36 114/35 115/37
f 113/36 115/37 116/38
f 117/38 118/37 119/39
f 117/38 119/39 120/40
f 121/40 122/39 123/41
f 121/40 123/41 124/42
f 125/42 126/41 127/43
f 125/42 127/43 128/44
f 129/44 130/43 131/45
f 129/44 131/45 132/46
f 133/46 134/45 135/47
f 133/46 135/47 136/48
f 137/48 138/47 139/49
f 137/48 139/49 140/50
f 141/50 142/49 143/51
f 141/50 143/51 144/52
f 145/52 146/51 147/53
f 145/52 147/53 148/54
f 149/54 150/53 151/55
f 149/54 151/55 152/56
s 1
f 153/56 154/55 155/57
s 0
f 153/56 155/57 156/58
f 157/58 158/57 159/59
f 157/58 159/59 160/60
f 161/60 162/59 163/61
f 161/60 163/61 164/62
f 165/62 166/61 167/63
f 165/62 167/63 168/64
f 169/64 170/63 171/65
f 169/64 171/65 172/66
s 1
f 173/66 174/65 175/67
s 0
f 173/66 175/67 176/68
f 177/68 178/67 179/69
f 177/68 179/69 180/70
f 181/70 182/69 183/71
f 181/70 183/71 184/72
f 185/72 186/71 187/73
f 185/72 187/73 188/74
f 189/74 190/73 191/75
f 189/74 191/75 192/76
f 193/76 194/75 195/77
f 193/76 195/77 196/78
f 197/78 198/77 199/79
s 1
f 197/78 199/79 200/80
s 0
f 201/80 202/79 203/81
f 201/80 203/81 204/82
f 205/82 206/81 207/83
f 205/82 207/83 208/84
f 209/84 210/83 211/85
f 209/84 211/85 212/86
f 213/86 214/85 215/87
f 213/86 215/87 216/88
f 217/88 218/87 219/89
s 1
f 217/88 219/89 220/90
s 0
f 221/90 222/89 223/91
f 221/90 223/91 224/92
f 225/92 226/91 227/93
f 225/92 227/93 228/94
f 229/94 230/93 231/95
f 229/94 231/95 232/96
f 233/96 234/95 235/97
f 233/96 235/97 236/98
f 237/98 238/97 239/99
f 237/98 239/99 240/100
f 241/100 242/99 243/101
f 241/100 243/101 244/102
s 1
f 245/102 246/101 247/103
f 245/102 247/103 248/104
s 0
f 249/104 250/103 251/105
f 249/104 251/105 252/106
f 253/106 254/105 255/107
f 253/106 255/107 256/108
f 257/108 258/107 259/109
f 257/108 259/109 260/110
f 261/110 262/109 263/111
f 261/110 263/111 264/112
f 265/112 266/111 267/113
s 1
f 265/112 267/113 268/114
s 0
f 269/114 270/113 271/115
f 269/114 271/115 272/116
f 273/116 274/115 275/117
f 273/116 275/117 276/118
f 277/118 278/117 279/119
f 277/118 279/119 280/120
f 281/120 282/119 283/121
s 1
f 281/120 283/121 284/122
s 0
f 285/122 286/121 287/123
s 1
f 285/122 287/123 288/124
s 0
f 289/124 290/123 291/125
f 289/124 291/125 292/126
f 293/126 294/125 295/127
f 293/126 295/127 296/128
f 297/128 298/127 299/129
f 297/128 299/129 300/130
s 1
f 301/130 302/129 303/131
s 0
f 301/130 303/131 304/132
f 305/132 306/131 307/133
f 305/132 307/133 308/134
f 309/134 310/133 311/135
f 309/134 311/135 312/136
f 313/136 314/135 315/137
f 313/136 315/137 316/138
f 317/138 318/137 319/139
f 317/138 319/139 320/140
f 321/140 322/139 323/141
f 321/140 323/141 324/142
f 325/142 326/141 327/143
f 325/142 327/143 328/144
f 329/144 330/143 331/145
f 329/144 331/145 332/146
s 1
f 333/146 334/145 335/147
f 333/146 335/147 336/148
s 0
f 337/148 338/147 339/149
f 337/148 339/149 340/150
f 341/150 342/149 343/151
f 341/150 343/151 344/152
f 345/152 346/151 347/153
f 345/152 347/153 348/154
f 349/154 350/153 351/155
s 1
f 349/154 351/155 352/156
s 0
f 353/156 354/155 355/157
f 353/156 355/157 356/158
f 357/158 358/157 359/159
f 357/158 359/159 360/160
f 361/160 362/159 363/161
f 361/160 363/161 364/162
f 365/162 366/161 367/163
f 365/162 367/163 368/164
f 369/164 370/163 371/165
f 369/164 371/165 372/166
f 373/166 374/165 375/167
f 373/166 375/167 376/168
f 377/168 378/167 379/169
f 377/168 379/169 380/170
f 381/170 382/169 383/171
f 381/170 383/171 384/172
f 385/172 386/171 387/173
f 385/172 387/173 388/174
f 389/174 390/173 391/175
s 1
f 389/174 391/175 392/176
s 0
f 393/176 394/175 395/177
f 393/176 395/177 396/178
f 397/178 398/177 399/179
f 397/178 399/179 400/180
f 401/180 402/179 403/181
f 401/180 403/181 404/182
f 405/182 406/181 407/183
f 405/182 407/183 408/184
f 409/184 410/183 411/185
f 409/184 411/185 412/186
f 413/186 414/185 415/187
f 413/186 415/187 416/188
f 417/188 418/187 419/189
f 417/188 419/189 420/190
f 421/190 422/189 423/191
f 421/190 423/191 424/192
f 425/192 426/191 427/193
f 425/192 427/193 428/194
f 429/194 430/193 431/195
f 429/194 431/195 432/196
f 433/196 434/195 435/197
f 433/196 435/197 436/198
f 437/198 438/197 439/199
f 437/198 439/199 440/200
f 441/200 442/199 443/201
f 441/200 443/201 444/202
f 445/202 446/201 447/203
f 445/202 447/203 448/204
f 449/204 450/203 451/205
f 449/204 451/205 452/206
f 453/206 454/205 455/207
f 453/206 455/207 456/208
f 457/208 458/207 459/209
f 457/208 459/209 460/210
f 461/210 462/209 463/211
f 461/210 463/211 464/212
f 465/212 466/211 467/213
f 465/212 467/213 468/214
f 469/214 470/213 471/215
f 469/214 471/215 472/216
f 473/216 474/215 475/217
f 473/216 475/217 476/218
f 477/218 478/217 479/219
f 477/218 479/219 480/220
f 481/220 482/219 483/221
f 481/220 483/221 484/222
f 485/222 486/221 487/223
f 485/222 487/223 488/224
f 489/224 490/223 491/225
f 489/224 491/225 492/226
f 493/226 494/225 495/227
f 493/226 495/227 496/228
f 497/228 498/227 499/229
f 497/228 499/229 500/230
f 501/230 502/229 503/231
f 501/230 503/231 504/232
f 505/232 506/231 507/233
f 505/232 507/233 508/234
f 509/234 510/233 511/235
s 1
f 509/234 511/235 512/236
s 0
f 513/236 514/235 515/237
f 513/236 515/237 516/238
s 1
f 517/238 518/237 519/239
f 517/238 519/239 520/240
s 0
f 521/240 522/239 523/241
f 521/240 523/241 524/242
s 1
f 525/242 526/241 527/243
f 525/242 527/243 528/244
s 0
f 529/244 530/243 531/245
f 529/244 531/245 532/246
s 1
f 533/246 534/245 535/247
f 533/246 535/247 536/248
s 0
f 537/248 538/247 539/249
f 537/248 539/249 540/250
f 541/250 542/249 543/251
f 541/250 543/251 544/252
f 545/252 546/251 547/253
f 545/252 547/253 548/254
s 1
f 549/254 550/253 551/255
s 0
f 549/254 551/255 552/256
f 553/256 554/255 555/257
f 553/256 555/257 556/258
f 557/258 558/257 559/259
f 557/258 559/259 560/260
f 561/260 562/259 563/261
s 1
f 561/260 563/261 564/262
s 0
f 565/262 566/261 567/263
f 565/262 567/263 568/264
f 569/264 570/263 571/265
f 569/264 571/265 572/266
s 1
f 573/266 574/265 575/267
s 0
f 573/266 575/267 576/268
f 577/268 578/267 579/269
f 577/268 579/269 580/270
f 581/270 582/269 583/271
f 581/270 583/271 584/272
f 585/272 586/271 587/273
f 585/272 587/273 588/274
s 1
f 589/274 590/273 591/275
s 0
f 589/274 591/275 592/276
s 1
f 593/276 594/275 595/277
f 593/276 595/277 596/278
s 0
f 597/278 598/277 599/279
f 597/278 599/279 600/280
f 601/281 602/282 603/283
f 603/283 604/284 605/285
f 605/285 606/286 607/287
f 607/287 608/288 609/289
f 609/289 610/290 611/291
f 611/291 612/292 613/293
f 613/293 614/294 615/295
f 615/295 616/296 617/297
f 617/297 618/298 619/299
f 619/299 620/300 621/301
f 621/301 622/302 623/303
f 623/303 624/304 625/305
f 625/305 626/306 627/307
f 627/307 628/308 629/309
f 629/309 630/310 631/311
f 631/311 632/312 633/313
f 633/313 634/314 635/315
f 635/315 636/316 637/317
f 637/317 638/318 639/319
f 639/319 640/320 641/321
f 641/321 642/322 643/323
f 643/323 644/324 645/325
f 645/325 646/326 647/327
f 647/327 648/328 649/329
f 649/329 650/330 651/331
f 651/331 652/332 653/333
f 653/333 654/334 655/335
f 655/335 656/336 657/337
f 657/337 658/338 659/339
f 659/339 660/340 661/341
f 661/341 662/342 663/343
f 663/343 664/344 665/345
f 665/345 666/346 667/347
f 667/347 668/348 669/349
f 669/349 670/350 671/351
f 671/351 672/352 673/353
f 673/353 674/354 675/355
f 675/355 676/356 677/357
f 677/357 678/358 679/359
f 679/359 680/360 681/361
f 681/361 682/362 683/363
f 683/363 684/364 685/365
f 685/365 686/366 687/367
f 687/367 688/368 689/369
f 689/369 690/370 691/371
f 691/371 692/372 693/373
f 693/373 694/374 695/375
f 695/375 696/376 697/377
f 697/377 698/378 699/379
f 699/379 700/380 701/381
f 701/381 702/382 703/383
f 703/383 704/384 705/385
f 705/385 706/386 707/387
f 707/387 708/388 709/389
f 709/389 710/390 711/391
f 711/391 712/392 713/393
f 713/393 714/394 715/395
f 715/395 716/396 717/397
f 717/397 718/398 719/399
f 719/399 720/400 721/401
f 721/401 722/402 723/403
f 723/403 724/404 725/405
f 725/405 726/406 727/407
f 727/407 728/408 729/409
f 729/409 730/410 731/411
f 731/411 732/412 601/281
f 601/281 603/283 605/285
f 605/285 607/287 609/289
f 609/289 611/291 613/293
f 613/293 615/295 617/297
f 617/297 619/299 621/301
f 621/301 623/303 625/305
f 625/305 627/307 629/309
f 629/309 631/311 633/313
f 633/313 635/315 637/317
f 637/317 639/319 641/321
f 641/321 643/323 645/325
f 645/325 647/327 649/329
f 649/329 651/331 653/333
f 653/333 655/335 657/337
f 657/337 659/339 661/341
f 661/341 663/343 665/345
f 665/345 667/347 669/349
f 669/349 671/351 673/353
f 673/353 675/355 677/357
f 677/357 679/359 681/361
f 681/361 683/363 685/365
f 685/365 687/367 689/369
f 689/369 691/371 693/373
f 693/373 695/375 697/377
f 697/377 699/379 701/381
f 701/381 703/383 705/385
f 705/385 707/387 709/389
f 709/389 711/391 713/393
f 713/393 715/395 717/397
f 717/397 719/399 721/401
f 721/401 723/403 725/405
f 725/405 727/407 729/409
f 729/409 731/411 601/281
f 601/281 605/285 609/289
f 609/289 613/293 617/297
f 617/297 621/301 625/305
f 625/305 629/309 633/313
f 633/313 637/317 641/321
f 641/321 645/325 649/329
f 649/329 653/333 657/337
f 657/337 661/341 665/345
f 665/345 669/349 673/353
f 673/353 677/357 681/361
f 681/361 685/365 689/369
f 689/369 693/373 697/377
f 697/377 701/381 705/385
f 705/385 709/389 713/393
f 713/393 717/397 721/401
f 721/401 725/405 729/409
f 729/409 601/281 609/289
f 609/289 617/297 625/305
f 625/305 633/313 641/321
f 641/321 649/329 657/337
f 657/337 665/345 673/353
f 673/353 681/361 689/369
f 689/369 697/377 705/385
f 705/385 713/393 721/401
f 721/401 729/409 609/289
f 609/289 625/305 641/321
f 641/321 657/337 673/353
f 673/353 689/369 705/385
f 705/385 721/401 609/289
f 609/289 641/321 673/353
f 609/289 673/353 705/385
f 733/413 734/414 735/415
f 735/415 736/416 737/417
f 737/417 738/418 739/419
f 739/419 740/420 741/421
f 741/421 742/422 743/423
f 743/423 744/424 745/425
f 745/425 746/426 747/427
f 747/427 748/428 749/429
f 749/429 750/430 751/431
f 751/431 752/432 753/433
f 753/433 754/434 755/435
f 755/435 756/436 757/437
f 757/437 758/438 759/439
f 759/439 760/440 761/441
f 761/441 762/442 763/443
f 763/443 764/444 765/445
f 765/445 766/446 767/447
f 767/447 768/448 769/449
f 769/449 770/450 771/451
f 771/451 772/452 773/453
f 773/453 774/454 775/455
s 1
f 775/455 776/456 777/457
s 0
f 777/457 778/458 779/459
f 779/459 780/460 781/461
f 781/461 782/462 783/463
f 783/463 784/464 785/465
f 785/465 786/466 787/467
f 787/467 788/468 789/469
f 789/469 790/470 791/471
f 791/471 792/472 793/473
f 793/473 794/474 795/475
f 795/475 796/476 797/477
f 797/477 798/478 799/479
f 799/479 800/480 801/481
f 801/481 802/482 803/483
f 803/483 804/484 805/485
f 805/485 806/486 807/487
f 807/487 808/488 809/489
f 809/489 810/490 811/491
f 811/491 812/492 813/493
f 813/493 814/494 815/495
f 815/495 816/496 817/497
f 817/497 818/498 819/499
f 819/499 820/500 821/501
f 821/501 822/502 823/503
f 823/503 824/504 825/505
f 825/505 826/506 827/507
f 827/507 828/508 829/509
f 829/509 830/510 831/511
f 831/511 832/512 833/513
f 833/513 834/514 835/515
f 835/515 836/516 837/517
f 837/517 838/518 839/519
f 839/519 840/520 841/521
f 841/521 842/522 843/523
f 843/523 844/524 845/525
f 845/525 846/526 847/527
f 847/527 848/528 849/529
f 849/529 850/530 851/531
f 851/531 852/532 853/533
f 853/533 854/534 855/535
f 855/535 856/536 857/537
f 857/537 858/538 859/539
f 859/539 860/540 861/541
f 861/541 862/542 863/543
f 863/543 864/544 733/413
f 733/413 735/415 737/417
f 737/417 739/419 741/421
f 741/421 743/423 745/425
f 745/425 747/427 749/429
f 749/429 751/431 753/433
f 753/433 755/435 757/437
f 757/437 759/439 761/441
f 761/441 763/443 765/445
f 765/445 767/447 769/449
f 769/449 771/451 773/453
f 773/453 775/455 777/457
f 777/457 779/459 781/461
f 781/461 783/463 785/465
f 785/465 787/467 789/469
f 789/469 791/471 793/473
f 793/473 795/475 797/477
f 797/477 799/479 801/481
f 801/481 803/483 805/485
f 805/485 807/487 809/489
f 809/489 811/491 813/493
f 813/493 815/495 817/497
f 817/497 819/499 821/501
f 821/501 823/503 825/505
f 825/505 827/507 829/509
f 829/509 831/511 833/513
f 833/513 835/515 837/517
f 837/517 839/519 841/521
f 841/521 843/523 845/525
f 845/525 847/527 849/529
f 849/529 851/531 853/533
f 853/533 855/535 857/537
f 857/537 859/539 861/541
f 861/541 863/543 733/413
f 733/413 737/417 741/421
f 741/421 745/425 749/429
f 749/429 753/433 757/437
f 757/437 761/441 765/445
f 765/445 769/449 773/453
f 773/453 777/457 781/461
f 781/461 785/465 789/469
f 789/469 793/473 797/477
f 797/477 801/481 805/485
f 805/485 809/489 813/493
s 1
f 813/493 817/497 821/501
s 0
f 821/501 825/505 829/509
f 829/509 833/513 837/517
f 837/517 841/521 845/525
f 845/525 849/529 853/533
f 853/533 857/537 861/541
f 861/541 733/413 741/421
f 741/421 749/429 757/437
f 757/437 765/445 773/453
f 773/453 781/461 789/469
f 789/469 797/477 805/485
f 805/485 813/493 821/501
f 821/501 829/509 837/517
f 837/517 845/525 853/533
f 853/533 861/541 741/421
f 741/421 757/437 773/453
f 773/453 789/469 805/485
s 1
f 805/485 821/501 837/517
s 0
f 837/517 853/533 741/421
f 741/421 773/453 805/485
f 741/421 805/485 837/517
